<?xml version="1.0" encoding="utf-8"?>
<!-- Generator: Adobe Illustrator 22.1.0, SVG Export Plug-In . SVG Version: 6.00 Build 0)  -->
<svg version="1.1" id="Layer_1" xmlns="http://www.w3.org/2000/svg" xmlns:xlink="http://www.w3.org/1999/xlink" x="0px" y="0px"
	 viewBox="0 0 72 72" style="enable-background:new 0 0 72 72;" xml:space="preserve">
<style type="text/css">
	.st0{fill:none;stroke:#000000;stroke-width:2;}
	.st1{fill:none;stroke:#000000;stroke-width:2;stroke-linecap:round;stroke-linejoin:round;}
</style>
<path class="st0" d="M38.8,27.6h22.7c1.1,0,2,0.9,2,2v28.9c0,1.1-0.9,2-2,2H38.8c-1.1,0-2-0.9-2-2V29.6
	C36.8,28.5,37.7,27.6,38.8,27.6z"/>
<path class="st0" d="M41.4,30.2h16.9c1.1,0,2,0.9,2,2v0.7c0,1.1-0.9,2-2,2H41.4c-1.1,0-2-0.9-2-2v-0.7
	C39.4,31.1,40.3,30.2,41.4,30.2z"/>
<path class="st0" d="M41.4,37.5h0.7c1.1,0,2,0.9,2,2v0.7c0,1.1-0.9,2-2,2h-0.7c-1.1,0-2-0.9-2-2v-0.7C39.4,38.4,40.3,37.5,41.4,37.5
	z"/>
<path class="st0" d="M49.8,37.5h0.7c1.1,0,2,0.9,2,2v0.7c0,1.1-0.9,2-2,2h-0.7c-1.1,0-2-0.9-2-2v-0.7C47.8,38.4,48.7,37.5,49.8,37.5
	z"/>
<path class="st0" d="M57.6,37.5h0.7c1.1,0,2,0.9,2,2v0.7c0,1.1-0.9,2-2,2h-0.7c-1.1,0-2-0.9-2-2v-0.7C55.6,38.4,56.5,37.5,57.6,37.5
	z"/>
<path class="st0" d="M41.4,44.8h0.7c1.1,0,2,0.9,2,2v0.7c0,1.1-0.9,2-2,2h-0.7c-1.1,0-2-0.9-2-2v-0.7C39.4,45.7,40.3,44.8,41.4,44.8
	z"/>
<path class="st0" d="M49.8,44.8h0.7c1.1,0,2,0.9,2,2v0.7c0,1.1-0.9,2-2,2h-0.7c-1.1,0-2-0.9-2-2v-0.7C47.8,45.7,48.7,44.8,49.8,44.8
	z"/>
<path class="st0" d="M57.6,44.8h0.7c1.1,0,2,0.9,2,2v0.7c0,1.1-0.9,2-2,2h-0.7c-1.1,0-2-0.9-2-2v-0.7C55.6,45.7,56.5,44.8,57.6,44.8
	z"/>
<path class="st0" d="M41.4,52.1h0.7c1.1,0,2,0.9,2,2v0.7c0,1.1-0.9,2-2,2h-0.7c-1.1,0-2-0.9-2-2v-0.7C39.4,53,40.3,52.1,41.4,52.1z"
	/>
<path class="st0" d="M49.8,52.1h0.7c1.1,0,2,0.9,2,2v0.7c0,1.1-0.9,2-2,2h-0.7c-1.1,0-2-0.9-2-2v-0.7C47.8,53,48.7,52.1,49.8,52.1z"
	/>
<path class="st0" d="M57.6,52.1h0.7c1.1,0,2,0.9,2,2v0.7c0,1.1-0.9,2-2,2h-0.7c-1.1,0-2-0.9-2-2v-0.7C55.6,53,56.5,52.1,57.6,52.1z"
	/>
<path class="st1" d="M46.5,22.6c1.1-9.9-13.4-17.7-18.8-2.3C22.3,4.4,7.5,13.1,8.6,22.6c0.9,7.6,13.1,17.7,19.1,21.9
	c1.5-1,3.5-2.6,5.7-4.5"/>
</svg>
