<?xml version="1.0" encoding="utf-8"?>
<!-- Generator: Adobe Illustrator 22.1.0, SVG Export Plug-In . SVG Version: 6.00 Build 0)  -->
<svg version="1.1" id="Layer_1" xmlns="http://www.w3.org/2000/svg" xmlns:xlink="http://www.w3.org/1999/xlink" x="0px" y="0px"
	 viewBox="0 0 48 48" style="enable-background:new 0 0 48 48;" xml:space="preserve">
<style type="text/css">
	.st0{fill:none;stroke:#000000;stroke-width:2;}
	.st1{fill:none;stroke:#000000;stroke-width:2;stroke-linecap:round;stroke-linejoin:round;}
</style>
<path class="st0" d="M21.4,20.3l-1.2,4c-0.5,1.5,1,3,2.5,2.5l5.1-1.7c0.3-0.1,0.5-0.2,0.7-0.4L45.4,9.1c0.9-0.8,0.9-2.1,0-2.9
	l-3.2-2.9c-0.8-0.7-1.9-0.7-2.7,0L21.9,19.5C21.7,19.7,21.5,20,21.4,20.3z"/>
<path class="st1" d="M26.3,9.7H9c-3.3,0-6,2.7-6,6V39c0,3.3,2.7,6,6,6h25.2c3.3,0,6-2.7,6-6V23.3"/>
</svg>
