<?xml version="1.0" encoding="utf-8"?>
<!-- Generator: Adobe Illustrator 22.1.0, SVG Export Plug-In . SVG Version: 6.00 Build 0)  -->
<svg version="1.1" id="Layer_1" xmlns="http://www.w3.org/2000/svg" xmlns:xlink="http://www.w3.org/1999/xlink" x="0px" y="0px"
	 viewBox="0 0 72 72" style="enable-background:new 0 0 72 72;" xml:space="preserve">
<style type="text/css">
	.st0{fill:none;stroke:#000000;stroke-width:2;}
	.st1{fill:none;stroke:#000000;stroke-width:2;stroke-linecap:round;}
</style>
<path class="st0" d="M26.8,41.1l0.6-1.7l5.3-13.3c1.7-4.4,7.6-5.1,10.4-1.4l1.9,2.6c0.6,0.8,1.5,1.2,2.4,1.2h5.2
	c1.9,0,3.4,1.5,3.4,3.4l0,0c0,1.9-1.5,3.4-3.4,3.4h-8c-1,0-1.9-0.5-2.4-1.3l-0.1-0.1c-1.4-1.9-4.4-1.6-5.2,0.6l-0.1,0.2
	c-0.6,1.4,0,3,1.4,3.7l7.6,4.1c1,0.5,1.6,1.5,1.6,2.6v14.8c0,1.7-1.4,3.1-3.1,3.1l0,0c-1.7,0-3.1-1.4-3.1-3.1v-9.4
	c0-1.1-0.6-2.1-1.6-2.6L34,44.9 M26.8,41.1v7.4c0,1-0.5,1.9-1.3,2.4l-7.5,5.3c-1.6,1.1-2,3.2-1.1,4.9l0,0c1.1,1.9,3.5,2.5,5.3,1.3
	l10.4-7c0.8-0.6,1.3-1.5,1.3-2.5L34,44.9 M26.8,41.1l7.1,3.8"/>
<path class="st0" d="M46,13.9c0,2.9-2.3,5.2-5.2,5.2c-2.8,0-5.2-2.3-5.2-5.2s2.3-5.2,5.2-5.2C43.7,8.7,46,11,46,13.9z"/>
<path class="st1" d="M52,20.1v8.4 M52,63.3V35.2"/>
<path class="st0" d="M28.5,17.9l3.1,1.1c1.6,0.6,2.4,2.3,1.8,3.9l-1.7,4.6c-0.6,1.6-2.3,2.4-3.8,1.8l-3.1-1.1
	c-1.6-0.6-2.4-2.3-1.8-3.9l1.7-4.6C25.2,18.1,26.9,17.3,28.5,17.9z"/>
<path class="st0" d="M21,27.4l6.3,2.3c1.6,0.6,2.4,2.3,1.8,3.8l-0.9,2.6c-0.6,1.6-2.3,2.4-3.8,1.8L18,35.6c-1.6-0.6-2.4-2.3-1.8-3.8
	l0.9-2.6C17.7,27.7,19.4,26.8,21,27.4z"/>
</svg>
