<?xml version="1.0" encoding="utf-8"?>
<!-- Generator: Adobe Illustrator 22.1.0, SVG Export Plug-In . SVG Version: 6.00 Build 0)  -->
<svg version="1.1" id="Layer_1" xmlns="http://www.w3.org/2000/svg" xmlns:xlink="http://www.w3.org/1999/xlink" x="0px" y="0px"
	 viewBox="0 0 72 72" style="enable-background:new 0 0 72 72;" xml:space="preserve">
<style type="text/css">
	.st0{fill:none;stroke:#000000;stroke-width:2;}
	.st1{fill:#FFFFFF;stroke:#000000;stroke-width:2;stroke-miterlimit:10;}
	.st2{stroke:#000000;stroke-width:2;stroke-linecap:round;}
</style>
<path class="st0" d="M33.7,28.6c1.7-3.3,5.3-5.6,9.4-5.6c5.8,0,10.6,4.6,10.6,10.2c0,2-0.6,3.8-1.6,5.4"/>
<path class="st1" d="M46.4,37.9c-1,0-2,0.1-3,0.4c-2.4-7.1-9.2-12.2-17.1-12.2c-10,0-18.1,8.1-18.1,18.1c0,10,8.1,18.1,18.1,18.1v0
	h20.2c6.7,0,12.2-5.5,12.2-12.2C58.6,43.4,53.1,37.9,46.4,37.9z"/>
<line class="st2" x1="28" y1="16.9" x2="32.8" y2="21.8"/>
<line class="st2" x1="43.7" y1="10.1" x2="43.7" y2="16.9"/>
<line class="st2" x1="58.6" y1="16.9" x2="53.7" y2="21.8"/>
<line class="st2" x1="65.4" y1="32.3" x2="58.6" y2="32.3"/>
</svg>
