<?xml version="1.0" encoding="utf-8"?>
<!-- Generator: Adobe Illustrator 22.1.0, SVG Export Plug-In . SVG Version: 6.00 Build 0)  -->
<svg version="1.1" id="Layer_1" xmlns="http://www.w3.org/2000/svg" xmlns:xlink="http://www.w3.org/1999/xlink" x="0px" y="0px"
	 viewBox="0 0 100 100" style="enable-background:new 0 0 100 100;" xml:space="preserve">
<style type="text/css">
	.st0{fill:none;stroke:#000000;stroke-width:4;}
	.st1{fill:#FFFFFF;stroke:#000000;stroke-width:4;stroke-miterlimit:10;}
	.st2{stroke:#000000;stroke-width:4;stroke-linecap:round;}
</style>
<path class="st0" d="M45.4,37.4c2.7-5.2,8.4-8.9,14.9-8.9c9.2,0,16.8,7.3,16.8,16.2c0,3.2-1,6-2.5,8.6"/>
<path class="st1" d="M65.6,52.2c-1.6,0-3.2,0.2-4.8,0.6C57,41.5,46.3,33.4,33.6,33.4c-15.9,0-28.8,12.9-28.8,28.8
	c0,15.9,12.8,28.7,28.7,28.8v0h32.1C76.3,91,85,82.3,85,71.6C85,60.9,76.3,52.2,65.6,52.2z"/>
<line class="st2" x1="36.3" y1="18.9" x2="44.1" y2="26.6"/>
<line class="st2" x1="61.3" y1="8" x2="61.3" y2="18.9"/>
<line class="st2" x1="84.9" y1="18.9" x2="77.2" y2="26.6"/>
<line class="st2" x1="95.9" y1="43.3" x2="84.9" y2="43.3"/>
</svg>
